<?xml version="1.0" standalone="no"?>
<!DOCTYPE svg PUBLIC "-//W3C//DTD SVG 20010904//EN"
 "http://www.w3.org/TR/2001/REC-SVG-20010904/DTD/svg10.dtd">
<svg version="1.0" xmlns="http://www.w3.org/2000/svg"
 width="100.000000pt" height="100.000000pt" viewBox="0 0 100.000000 100.000000"
 preserveAspectRatio="xMidYMid meet">
<metadata>
Created by potrace 1.11, written by Peter Selinger 2001-2013
</metadata>
<g transform="translate(0.000000,100.000000) scale(0.100000,-0.100000)"
fill="#000000" stroke="none">
<path d="M432 967 c-118 -45 -173 -176 -121 -284 29 -59 80 -93 142 -93 62 0
102 21 126 68 43 86 -16 174 -98 146 -28 -10 -41 -48 -22 -67 15 -15 14 -27
-2 -27 -19 0 -47 33 -47 54 0 77 96 117 167 71 45 -30 65 -74 59 -132 -11
-122 -129 -190 -256 -148 -175 58 -359 -53 -377 -229 -18 -176 150 -315 304
-251 48 20 71 41 94 87 56 109 -10 228 -125 228 -61 0 -106 -39 -106 -94 0
-67 85 -97 100 -35 l6 24 13 -23 c33 -61 -66 -100 -123 -50 -15 13 -29 41 -35
66 -8 36 -6 49 13 85 30 56 73 80 142 79 96 0 156 -59 185 -178 33 -139 122
-212 264 -220 111 -5 197 45 241 140 53 115 3 248 -110 291 -118 45 -238 -35
-232 -154 2 -36 9 -50 39 -77 46 -43 96 -46 132 -9 45 44 23 111 -33 99 l-27
-5 24 21 c39 34 99 2 105 -56 9 -95 -110 -156 -203 -103 -49 28 -73 63 -79
115 -8 76 4 108 70 180 80 89 103 139 102 229 -1 108 -52 192 -147 242 -40 20
-143 26 -185 10z m141 -38 c89 -24 151 -115 151 -219 -1 -80 -17 -114 -94
-197 -68 -72 -84 -112 -78 -197 3 -49 10 -71 33 -103 38 -53 107 -87 172 -84
161 6 222 228 75 272 -45 13 -84 1 -107 -35 -23 -35 -2 -81 38 -81 29 1 31
-12 5 -28 -25 -16 -66 1 -83 33 -32 62 15 142 90 156 38 7 100 -11 125 -35
135 -130 12 -351 -182 -328 -101 12 -175 76 -202 174 -44 162 -128 236 -254
227 -127 -9 -213 -147 -159 -255 37 -73 116 -101 184 -65 65 33 66 137 2 151
-32 7 -59 -7 -59 -31 0 -8 -4 -14 -10 -14 -16 0 -12 47 6 64 9 9 32 16 56 16
80 0 123 -90 83 -173 -26 -54 -61 -72 -137 -72 -59 0 -70 3 -104 31 -99 80
-110 203 -28 311 56 74 173 99 301 65 53 -14 69 -14 110 -4 133 36 204 163
158 280 -60 149 -275 140 -292 -12 -5 -40 -2 -48 25 -76 34 -33 66 -38 100
-14 26 18 28 46 6 68 -14 15 -14 16 4 16 38 0 57 -48 35 -92 -17 -34 -42 -48
-88 -48 -93 0 -151 107 -111 204 36 86 126 124 229 95z"/>
</g>
</svg>
